<?xml version="1.0" encoding="UTF-8"?><svg id="Capa_1" xmlns="http://www.w3.org/2000/svg" viewBox="0 0 720 1339"><defs><style>.cls-1,.cls-2,.cls-3,.cls-4{font-family:Poppins-Medium, Poppins;font-weight:500;}.cls-5,.cls-3{font-size:28.73px;}.cls-6{font-size:24.02px;}.cls-6,.cls-7,.cls-4{fill:#b4c83a;}.cls-2{font-size:30px;}.cls-7{font-size:20.53px;}.cls-8{font-size:27.72px;}.cls-9{font-family:Poppins-Bold, Poppins;font-size:50px;font-weight:700;letter-spacing:0em;}.cls-9,.cls-10{fill:#99cf16;}.cls-11{font-size:27.13px;}.cls-4{font-size:40px;}.cls-12{font-size:20px;}</style></defs><text class="cls-2" transform="translate(80.65 339.28)"><tspan x="0" y="0">Crédito Individual</tspan></text><text class="cls-9" transform="translate(80.65 234.28) scale(.95 1)"><tspan x="0" y="0">Tu Negocio Con </tspan><tspan x="0" y="60">Conserva</tspan></text><text class="cls-4" transform="translate(80.65 451.74)"><tspan x="0" y="0">Características</tspan></text><text class="cls-4" transform="translate(80.65 776.74)"><tspan x="0" y="0">Requisitos</tspan></text><g><text class="cls-1" transform="translate(80.82 508.5)"><tspan class="cls-8" x="0" y="0">Montos de </tspan><tspan class="cls-6" x="153.22" y="0">$20,000 a $200,000 </tspan><tspan class="cls-8" x="396.55" y="0">pesos</tspan><tspan class="cls-8"><tspan x="0" y="33.26">Plazo de 4 a 24 meses</tspan></tspan><tspan class="cls-8"><tspan x="0" y="66.52">Periodicidad de pagos semanales,</tspan></tspan><tspan class="cls-8"><tspan x="0" y="99.78">catorcenales y mensuales</tspan></tspan><tspan class="cls-8"><tspan x="0" y="133.05">No cobramos comisiones</tspan></tspan><tspan class="cls-11" x="0" y="165.6">Bonifcación </tspan><tspan class="cls-12" x="168.25" y="165.6">(aplican restricciones)</tspan></text><circle class="cls-10" cx="68.03" cy="496.85" r="5.38"/><circle class="cls-10" cx="68.03" cy="531.31" r="5.38"/><circle class="cls-10" cx="68.03" cy="564.69" r="5.38"/><circle class="cls-10" cx="68.03" cy="632.08" r="5.38"/><circle class="cls-10" cx="68.03" cy="631.47" r="5.38"/><circle class="cls-10" cx="68.03" cy="665.47" r="5.38"/></g><g><text class="cls-1" transform="translate(81.96 837.31)"><tspan class="cls-5"><tspan x="0" y="0">Identificación oficial vigente</tspan></tspan><tspan class="cls-5"><tspan x="0" y="34.47">Comprobante de domicilio </tspan></tspan><tspan class="cls-7"><tspan x="0" y="59.1">(no mayor a 3 meses)</tspan></tspan><tspan class="cls-5"><tspan x="0" y="93.57">Comprobante de domicilio del negocio </tspan></tspan><tspan class="cls-7"><tspan x="0" y="118.21">(no mayor a 3 meses)</tspan></tspan><tspan class="cls-5"><tspan x="0" y="152.68">Diversas opciones de garantías</tspan></tspan><tspan class="cls-5"><tspan x="0" y="187.15">Pago de cuota de protección conserva</tspan></tspan></text><text class="cls-3" transform="translate(82.43 1061.69)"><tspan x="0" y="0">Contar con un año minimo </tspan><tspan x="0" y="34.47">con su negocio</tspan><tspan x="0" y="68.94">Contar con un negocio fijo </tspan></text><circle class="cls-10" cx="69.23" cy="819.25" r="5.58"/><circle class="cls-10" cx="69.23" cy="853.85" r="5.58"/><circle class="cls-10" cx="69.23" cy="887.33" r="5.58"/><circle class="cls-10" cx="69.23" cy="921.93" r="5.58"/><circle class="cls-10" cx="69.23" cy="976.62" r="5.58"/><circle class="cls-10" cx="70.2" cy="1050.25" r="5.58"/><circle class="cls-10" cx="70.2" cy="1082.61" r="5.58"/><circle class="cls-10" cx="70.2" cy="1116.1" r="5.58"/></g></svg>