<?xml version="1.0" encoding="UTF-8"?><svg id="Capa_1" xmlns="http://www.w3.org/2000/svg" viewBox="0 0 720 1339"><defs><style>.cls-1{font-family:Poppins-Bold, Poppins;font-size:50px;font-weight:700;}.cls-1,.cls-2,.cls-3,.cls-4,.cls-5{fill:#e58b16;}.cls-2{font-size:40px;}.cls-2,.cls-6,.cls-7,.cls-8{font-family:Poppins-Medium, Poppins;font-weight:500;}.cls-3{font-size:24.02px;letter-spacing:0em;}.cls-7{font-size:30px;}.cls-8,.cls-9{font-size:28.12px;}.cls-10{font-size:27.13px;}.cls-11{font-size:20px;}.cls-5{font-size:17.86px;}</style></defs><text class="cls-7" transform="translate(112.04 203.82)"><tspan x="0" y="0">Crédito Grupal Mixto</tspan></text><text class="cls-1" transform="translate(112.04 147.82)"><tspan x="0" y="0">Conserva T-ACTIVA</tspan></text><text class="cls-2" transform="translate(112.04 347.28)"><tspan x="0" y="0">Características</tspan></text><g><text class="cls-6" transform="translate(111.82 403.55)"><tspan class="cls-10" x="0" y="0">Montos de </tspan><tspan class="cls-3" x="149.97" y="0">$10,000 a $80,000</tspan><tspan class="cls-10" x="367.67" y="0" xml:space="preserve"> pesos</tspan><tspan class="cls-10"><tspan x="0" y="32.55">Plazo de 4 a 9 meses</tspan></tspan><tspan class="cls-10"><tspan x="0" y="65.11">Pago semanal, catorcenal o mensual</tspan></tspan><tspan class="cls-10"><tspan x="0" y="97.66">Sin reuniones</tspan></tspan><tspan class="cls-10"><tspan x="0" y="130.22">Grupo mixto de 2 a 5 personas</tspan></tspan><tspan class="cls-10" x="0" y="162.77">Bonifcación </tspan><tspan class="cls-11" x="168.25" y="162.77">(aplican restricciones)</tspan><tspan class="cls-10"><tspan x="0" y="195.33"></tspan></tspan></text><circle class="cls-4" cx="95.42" cy="391.22" r="5.38"/><circle class="cls-4" cx="95.42" cy="425.69" r="5.38"/><circle class="cls-4" cx="95.42" cy="459.07" r="5.38"/><circle class="cls-4" cx="95.42" cy="492.46" r="5.38"/><circle class="cls-4" cx="95.42" cy="525.84" r="5.38"/><circle class="cls-4" cx="95.42" cy="525.84" r="5.38"/><circle class="cls-4" cx="95.42" cy="556.84" r="5.38"/></g><g><text class="cls-6" transform="translate(111.6 732.34)"><tspan class="cls-9"><tspan x="0" y="0">Identificación oficial vigente</tspan></tspan><tspan class="cls-9"><tspan x="0" y="33.74">Diversas garantias</tspan></tspan><tspan class="cls-9"><tspan x="0" y="67.48">CURP</tspan></tspan><tspan class="cls-9"><tspan x="0" y="101.22">Comprobante de domicilio </tspan></tspan><tspan class="cls-5"><tspan x="0" y="122.64">(no mayor a 3 meses)</tspan></tspan><tspan class="cls-9"><tspan x="0" y="156.38">Comprobante de domicilio </tspan></tspan><tspan class="cls-9"><tspan x="0" y="190.12">del negocio </tspan></tspan><tspan class="cls-5"><tspan x="0" y="211.55">(no mayor a 3 meses)</tspan></tspan><tspan class="cls-9"><tspan x="0" y="245.29">Pago de cuota de protección </tspan></tspan><tspan class="cls-9"><tspan x="0" y="279.03">conserva</tspan></tspan><tspan class="cls-9"><tspan x="0" y="312.77">Sin reuniones semanales</tspan></tspan></text><text class="cls-8" transform="translate(112.5 1082.49)"><tspan x="0" y="0">Arma tu grupo mixto de 2 a 5 </tspan><tspan x="0" y="33.74">personas</tspan><tspan x="0" y="67.48">Contar con un negocio fijo o semifijo</tspan><tspan x="0" y="101.21">Contar con un año de antiguedad</tspan><tspan x="0" y="134.95">minimo con tu negocio</tspan></text><circle class="cls-4" cx="95.61" cy="724.74" r="5.58"/><circle class="cls-4" cx="95.61" cy="759.33" r="5.58"/><circle class="cls-4" cx="95.61" cy="792.82" r="5.58"/><circle class="cls-4" cx="95.61" cy="827.42" r="5.58"/><circle class="cls-4" cx="95.61" cy="882.11" r="5.58"/><circle class="cls-4" cx="95.61" cy="964.7" r="5.58"/><circle class="cls-4" cx="95.61" cy="1039.48" r="5.58"/><circle class="cls-4" cx="95.46" cy="1077.11" r="5.58"/><circle class="cls-4" cx="95.46" cy="1137.69" r="5.58"/><circle class="cls-4" cx="95.46" cy="1171.17" r="5.58"/></g><text class="cls-2" transform="translate(112.04 673.28)"><tspan x="0" y="0">Requisitos</tspan></text></svg>